<?xml version="1.0" encoding="iso-8859-1"?>
<!-- Generator: Adobe Illustrator 23.0.6, SVG Export Plug-In . SVG Version: 6.00 Build 0)  -->
<svg version="1.1" xmlns="http://www.w3.org/2000/svg" xmlns:xlink="http://www.w3.org/1999/xlink" x="0px" y="0px"
	 viewBox="0 0 792 612" style="enable-background:new 0 0 792 612;" xml:space="preserve">
<g id="Layer_1">
	<g>
		<defs>
			<rect id="SVGID_1_" x="51.274" y="284.692" width="689.76" height="42"/>
		</defs>
		<clipPath id="SVGID_2_">
			<use xlink:href="#SVGID_1_"  style="overflow:visible;"/>
		</clipPath>
		<path style="clip-path:url(#SVGID_2_);fill:none;stroke:#000000;stroke-width:11.13;" d="M51.274,305.692
			c21.555-20.529,64.665-20.529,86.22,0c21.555,20.529,64.665,20.529,86.22,0c21.555-20.529,64.665-20.529,86.22,0
			c21.555,20.529,64.665,20.529,86.22,0c21.555-20.529,64.665-20.529,86.22,0c21.555,20.529,64.665,20.529,86.22,0
			c21.555-20.529,64.665-20.529,86.22,0c21.555,20.529,64.665,20.529,86.22,0"/>
	</g>
</g>
<g id="Layer_2">
	<path style="fill:none;stroke:#000000;stroke-width:11;stroke-miterlimit:10;" d="M48.072,309.728
		c1.311-1.87,3.204-4.188,5.841-6.467c2.949-2.55,5.83-4.191,8.037-5.235"/>
	<path style="fill:none;stroke:#000000;stroke-width:11;stroke-miterlimit:10;" d="M744.623,300.841
		c-1.311,1.87-3.204,4.188-5.841,6.467c-2.949,2.55-5.83,4.191-8.037,5.235"/>
	<g>
		<defs>
			<rect id="SVGID_3_" x="546.503" y="147.704" width="60.48" height="19"/>
		</defs>
		<clipPath id="SVGID_4_">
			<use xlink:href="#SVGID_3_"  style="overflow:visible;"/>
		</clipPath>
		<path style="clip-path:url(#SVGID_4_);fill:none;stroke:#000000;stroke-width:5.035;" d="M546.503,157.204
			c7.56-9.287,22.68-9.287,30.24,0s22.68,9.287,30.24,0"/>
	</g>
</g>
</svg>
