<?xml version="1.0" encoding="iso-8859-1"?>
<!-- Generator: Adobe Illustrator 23.0.6, SVG Export Plug-In . SVG Version: 6.00 Build 0)  -->
<svg version="1.1" id="Layer_1" xmlns="http://www.w3.org/2000/svg" xmlns:xlink="http://www.w3.org/1999/xlink" x="0px" y="0px"
	 viewBox="0 0 137.492 49.164" style="enable-background:new 0 0 137.492 49.164;" xml:space="preserve">
<g>
	<defs>
		<rect id="SVGID_1_" x="9.173" y="17.55" width="60.48" height="19"/>
	</defs>
	<clipPath id="SVGID_2_">
		<use xlink:href="#SVGID_1_"  style="overflow:visible;"/>
	</clipPath>
	<path style="clip-path:url(#SVGID_2_);fill:none;stroke:#66FFFF;stroke-width:5.035;" d="M9.173,27.05
		c7.56-9.287,22.68-9.287,30.24,0c6.879,8.451,20.018,9.212,28.025,2.283c0.792-0.686,1.534-1.447,2.215-2.283"/>
</g>
<g>
	<defs>
		<rect id="SVGID_3_" x="69.876" y="17.55" width="60.48" height="19"/>
	</defs>
	<clipPath id="SVGID_4_">
		<use xlink:href="#SVGID_3_"  style="overflow:visible;"/>
	</clipPath>
	<path style="clip-path:url(#SVGID_4_);fill:none;stroke:#66FFFF;stroke-width:5.035;" d="M69.876,27.05
		c7.56-9.287,22.68-9.287,30.24,0s22.68,9.287,30.24,0"/>
</g>
<path style="fill:#66FFFF;stroke:#66FFFF;stroke-width:0.25;" d="M69.252,26.912c0.009,1.327,0.017,2.653,0.026,3.98
	c0.782-0.745,1.564-1.491,2.346-2.236C70.833,28.075,70.043,27.493,69.252,26.912z"/>
<path style="fill:#66FFFF;stroke:#66FFFF;stroke-width:0.25;" d="M129.964,26.885c-0.085,1.417-0.169,2.834-0.254,4.252
	c0.35-0.313,0.704-0.637,1.06-0.972c0.549-0.517,1.07-1.029,1.565-1.535C131.546,28.048,130.755,27.467,129.964,26.885z"/>
<path style="fill:#66FFFF;stroke:#66FFFF;stroke-width:0.25;" d="M9.375,23.357c0.215,1.403,0.431,2.807,0.646,4.21
	c-0.378-0.279-0.76-0.569-1.146-0.87c-0.594-0.464-1.161-0.926-1.701-1.384C7.908,24.661,8.642,24.009,9.375,23.357z"/>
<path style="fill:#231F20;stroke:#231F20;stroke-width:0.25;" d="M71.671,29.378"/>
<path style="fill:#66FFFF;stroke:#66FFFF;stroke-width:0.25;" d="M67.728,25.625c0.264-0.32,0.564-0.656,0.905-0.998
	c0.485-0.486,0.963-0.892,1.405-1.23c0.645,1.621,1.291,3.241,1.936,4.862c-0.071,0.094-0.152,0.194-0.246,0.296
	c-0.126,0.137-0.251,0.253-0.367,0.349C70.143,27.814,68.948,26.716,67.728,25.625z"/>
</svg>
