<?xml version="1.0" encoding="iso-8859-1"?>
<!-- Generator: Adobe Illustrator 23.0.6, SVG Export Plug-In . SVG Version: 6.00 Build 0)  -->
<svg version="1.1" id="Layer_1" xmlns="http://www.w3.org/2000/svg" xmlns:xlink="http://www.w3.org/1999/xlink" x="0px" y="0px"
	 viewBox="0 0 792 612" style="enable-background:new 0 0 792 612;" xml:space="preserve">
<g>
	<defs>
		<rect id="SVGID_1_" x="48.774" y="55.054" width="60.48" height="19"/>
	</defs>
	<clipPath id="SVGID_2_">
		<use xlink:href="#SVGID_1_"  style="overflow:visible;"/>
	</clipPath>
	<path style="clip-path:url(#SVGID_2_);fill:none;stroke:#66FFFF;stroke-width:5.035;" d="M48.774,64.554
		c7.56-9.287,22.68-9.287,30.24,0c6.879,8.451,20.018,9.212,28.025,2.283c0.792-0.686,1.534-1.447,2.215-2.283"/>
</g>
<g>
	<defs>
		<rect id="SVGID_3_" x="109.477" y="55.054" width="60.48" height="19"/>
	</defs>
	<clipPath id="SVGID_4_">
		<use xlink:href="#SVGID_3_"  style="overflow:visible;"/>
	</clipPath>
	<path style="clip-path:url(#SVGID_4_);fill:none;stroke:#66FFFF;stroke-width:5.035;" d="M109.477,64.554
		c7.56-9.287,22.68-9.287,30.24,0c7.56,9.287,22.68,9.287,30.24,0"/>
</g>
<path style="fill:#66FFFF;stroke:#66FFFF;stroke-width:0.25;" d="M108.853,64.416c0.009,1.327,0.017,2.653,0.026,3.98
	c0.782-0.745,1.564-1.491,2.346-2.236C110.434,65.579,109.643,64.998,108.853,64.416z"/>
<path style="fill:#66FFFF;stroke:#66FFFF;stroke-width:0.25;" d="M169.565,64.39c-0.085,1.417-0.169,2.834-0.254,4.252
	c0.35-0.313,0.704-0.637,1.06-0.972c0.549-0.517,1.07-1.029,1.565-1.535C171.146,65.553,170.356,64.971,169.565,64.39z"/>
<path style="fill:#66FFFF;stroke:#66FFFF;stroke-width:0.25;" d="M48.976,60.862c0.215,1.403,0.431,2.807,0.646,4.21
	c-0.378-0.279-0.76-0.569-1.146-0.87c-0.594-0.464-1.161-0.926-1.701-1.384C47.509,62.166,48.242,61.514,48.976,60.862z"/>
<path style="fill:#231F20;stroke:#231F20;stroke-width:0.25;" d="M111.272,66.883"/>
<path style="fill:#66FFFF;stroke:#66FFFF;stroke-width:0.25;" d="M107.329,63.129c0.264-0.32,0.564-0.656,0.905-0.998
	c0.485-0.486,0.963-0.892,1.405-1.23c0.645,1.621,1.291,3.241,1.936,4.862c-0.071,0.094-0.152,0.194-0.246,0.296
	c-0.126,0.137-0.251,0.253-0.367,0.349C109.744,65.318,108.549,64.22,107.329,63.129z"/>
</svg>
